<svg width="24.302734" height="23.759766" viewBox="0 0 24.3027 23.7598" fill="none" xmlns="http://www.w3.org/2000/svg" xmlns:xlink="http://www.w3.org/1999/xlink">
	<desc>
			Created with Pixso.
	</desc>
	<defs>
		<clipPath id="clip10_3546">
			<rect id="heart 1" width="24.302689" height="23.760000" fill="white" fill-opacity="0"/>
		</clipPath>
	</defs>
	<rect id="heart 1" width="24.302689" height="23.760000" fill="#FFFFFF" fill-opacity="0"/>
	<g clip-path="url(#clip10_3546)">
		<path id="Vector" d="M16.15 3.83C19.02 3.83 21.34 6.14 21.34 9.37C21.34 15.82 14.26 19.51 11.9 20.89C9.55 19.51 2.47 15.82 2.47 9.37C2.47 6.14 4.83 3.83 7.66 3.83C9.41 3.83 10.96 4.75 11.9 5.68C12.85 4.75 14.4 3.83 16.15 3.83ZM12.79 18.22C13.62 17.71 14.37 17.2 15.07 16.65C17.88 14.47 19.45 12.08 19.45 9.37C19.45 7.19 18 5.68 16.15 5.68C15.13 5.68 14.04 6.2 13.24 6.98L11.9 8.29L10.57 6.98C9.77 6.2 8.68 5.68 7.66 5.68C5.83 5.68 4.36 7.2 4.36 9.37C4.36 12.08 5.93 14.47 8.74 16.65C9.44 17.2 10.19 17.71 11.02 18.22C11.31 18.4 11.59 18.56 11.9 18.75C12.22 18.56 12.5 18.4 12.79 18.22Z" fill="#FFFFFF" fill-opacity="1.000000" fill-rule="nonzero"/>
	</g>
</svg>
