<svg width="14.575195" height="12.604980" viewBox="0 0 14.5752 12.605" fill="none" xmlns="http://www.w3.org/2000/svg" xmlns:xlink="http://www.w3.org/1999/xlink">
	<desc>
			Created with Pixso.
	</desc>
	<defs>
		<clipPath id="clip2_6936">
			<rect id="Icons-twitter" width="14.575344" height="12.605051" fill="white" fill-opacity="0"/>
		</clipPath>
	</defs>
	<rect id="Icons-twitter" width="14.575344" height="12.605051" fill="#FFFFFF" fill-opacity="0"/>
	<rect id="Icons-twitter" width="14.575344" height="12.605051" fill="#FFFFFF" fill-opacity="0"/>
	<rect id="Icons-twitter" width="14.575344" height="12.605051" fill="#FFFFFF" fill-opacity="0"/>
	<g clip-path="url(#clip2_6936)">
		<path id="Vector" d="M13.4595 2.97021C12.9956 3.14746 12.5039 3.26416 12.0005 3.31592C12.5312 3.0415 12.9282 2.60938 13.1182 2.10059C12.6201 2.35693 12.0742 2.53662 11.5049 2.63379C11.1226 2.27979 10.6162 2.04541 10.064 1.96631C9.51172 1.8877 8.94434 1.96826 8.45117 2.19678C7.95752 2.42529 7.56494 2.78857 7.33447 3.22949C7.10449 3.6709 7.04883 4.16553 7.17725 4.63672C6.16748 4.59326 5.17969 4.36621 4.27783 3.9707C3.37549 3.5752 2.58008 3.02002 1.94238 2.3418C1.7168 2.67676 1.59814 3.05811 1.59863 3.44629C1.59863 4.20752 2.04688 4.88037 2.72803 5.27441C2.32471 5.26367 1.93066 5.16943 1.57812 4.99951L1.57812 5.02686C1.57812 5.53418 1.78125 6.02588 2.15234 6.41846C2.52393 6.81104 3.04053 7.08057 3.61523 7.18115C3.24121 7.26855 2.84863 7.28174 2.46777 7.21875C2.62988 7.65527 2.9458 8.03711 3.37109 8.31055C3.79639 8.58447 4.31006 8.73584 4.84033 8.74463C4.31348 9.10254 3.71045 9.3667 3.06494 9.52295C2.41992 9.6792 1.74561 9.72363 1.08057 9.6543C2.2417 10.2998 3.59326 10.6426 4.97363 10.6416C9.64551 10.6416 12.2002 7.29443 12.2002 4.3916C12.2002 4.29688 12.1973 4.20166 12.1924 4.10791C12.6899 3.79688 13.1191 3.41211 13.46 2.9707L13.4595 2.97021Z" fill="#2B2B2B" fill-opacity="1.000000" fill-rule="nonzero"/>
	</g>
</svg>
